<svg width="512" height="512" viewBox="0 0 512 512" fill="none" xmlns="http://www.w3.org/2000/svg">
<g clip-path="url(#clip0_3523_162)">
<path d="M131.361 256C131.361 177.963 194.849 114.475 272.886 114.475H287.886V87.611H327.772C334.124 107.314 352.628 121.613 374.417 121.613C401.437 121.613 423.419 99.631 423.419 72.611C423.419 45.59 401.437 23.608 374.417 23.608C352.628 23.608 334.124 37.907 327.772 57.611H287.886V15C287.886 6.716 281.17 0 272.886 0H241.062C225.018 0 211.935 12.925 211.676 28.909C192.075 34.179 173.214 41.997 155.6 52.15C144.117 41.019 125.72 41.129 114.37 52.477L69.3637 97.483C63.8127 103.035 60.7557 110.415 60.7557 118.265C60.7557 125.959 63.6927 133.203 69.0357 138.713C58.8827 156.327 51.0657 175.189 45.7947 194.789C29.8097 195.046 16.8857 208.13 16.8857 224.175V287.823C16.8857 303.868 29.8097 316.952 45.7947 317.209C51.0657 336.812 58.8837 355.675 69.0357 373.284C63.6927 378.796 60.7547 386.039 60.7547 393.733C60.7547 401.584 63.8117 408.963 69.3627 414.515L114.369 459.522C125.715 470.868 144.106 470.976 155.599 459.848C173.212 470.001 192.073 477.818 211.675 483.088C211.932 499.074 225.016 511.998 241.061 511.998H272.885C281.169 511.998 287.885 505.282 287.885 496.998V454.387H327.771C334.123 474.091 352.627 488.39 374.416 488.39C401.436 488.39 423.418 466.408 423.418 439.387C423.418 412.367 401.436 390.385 374.416 390.385C352.627 390.385 334.123 404.684 327.771 424.387H287.885V397.524H272.885C194.849 397.525 131.361 334.037 131.361 256Z" fill="white"/>
<path d="M446.112 267.377C424.323 267.377 405.819 281.676 399.467 301.379H287.886V210.621H399.467C405.819 230.324 424.323 244.623 446.112 244.623C473.132 244.623 495.114 222.641 495.114 195.621C495.114 168.6 473.132 146.618 446.112 146.618C424.323 146.618 405.819 160.917 399.467 180.621H287.886V144.475H272.886C211.391 144.475 161.361 194.505 161.361 256C161.361 317.495 211.391 367.525 272.886 367.525H287.886V331.379H399.467C405.819 351.083 424.323 365.382 446.112 365.382C473.132 365.382 495.114 343.4 495.114 316.379C495.114 289.359 473.132 267.377 446.112 267.377Z" fill="white"/>
</g>
<defs>
<clipPath id="clip0_3523_162">
<rect width="512" height="512" fill="white"/>
</clipPath>
</defs>
</svg>
