<svg width="512" height="512" viewBox="0 0 512 512" fill="none" xmlns="http://www.w3.org/2000/svg">
<g clip-path="url(#clip0_3523_147)">
<path d="M256 0C206.294 0 166 40.294 166 90C166 139.706 206.294 180 256 180C305.706 180 346 139.706 346 90C346 40.294 305.706 0 256 0ZM297.317 75.858L247.82 125.355C241.962 131.213 232.465 131.213 226.607 125.355L205.393 104.142C199.535 98.284 199.535 88.787 205.393 82.929C211.251 77.071 220.748 77.071 226.606 82.929L237.213 93.536L276.104 54.645C281.962 48.787 291.459 48.787 297.317 54.645C303.175 60.503 303.175 70 297.317 75.858Z" fill="white"/>
<path d="M30 431.012H15C6.716 431.012 0 424.296 0 416.012V226.012C0 217.728 6.716 211.012 15 211.012H30C38.284 211.012 45 217.728 45 226.012V416.012C45 424.296 38.284 431.012 30 431.012Z" fill="white"/>
<path d="M497 431.012H482C473.716 431.012 467 424.296 467 416.012V226.012C467 217.728 473.716 211.012 482 211.012H497C505.284 211.012 512 217.728 512 226.012V416.012C512 424.296 505.284 431.012 497 431.012Z" fill="white"/>
<path d="M365.042 401.673L294.978 323.543C288.847 316.706 278.847 314.923 270.73 319.22L205.195 353.914C195.558 359.016 184.721 361.712 173.856 361.712C149.295 361.712 126.732 348.325 114.972 326.775C97.397 294.568 109.192 253.87 141.265 236.052L150.338 231.012H74.998V404.012L199.006 497.017C212.196 506.907 228.06 512 244.047 512C252.398 512 260.78 510.585 268.833 507.761L339.518 477.094L358.641 465.536C367.69 460.067 374.076 451.079 376.196 440.72C376.201 440.693 376.207 440.666 376.212 440.64C379.055 426.623 374.878 412.056 365.042 401.673Z" fill="white"/>
<path d="M216 231.012C213.451 231.012 210.944 231.662 208.715 232.9L155.835 262.278C138.046 272.161 131.559 294.543 141.307 312.407C151.02 330.206 173.238 336.889 191.159 327.402L249.787 296.364C274.136 283.473 304.136 288.822 322.53 309.334L387.138 381.381C396.377 391.257 402.596 403.345 405.394 416.225C416.41 413.207 427.017 408.764 436.999 402.995V231.012H216Z" fill="white"/>
</g>
<defs>
<clipPath id="clip0_3523_147">
<rect width="512" height="512" fill="white"/>
</clipPath>
</defs>
</svg>
