<svg width="512" height="512" viewBox="0 0 512 512" fill="none" xmlns="http://www.w3.org/2000/svg">
<g clip-path="url(#clip0_3523_156)">
<path d="M507.606 395.513L452.64 340.541C446.972 352.47 436.131 361.636 422.376 364.904L414.888 366.682L413.109 374.176C410.07 386.975 395.776 411.077 365.689 408.631L358.008 408.007L354.002 414.582C347.258 425.649 335.938 433.213 323.353 435.456L395.512 507.607C399.188 511.283 404.505 512.794 409.565 511.599C414.625 510.405 418.705 506.675 420.349 501.744L440.696 440.696L501.744 420.349C506.676 418.705 510.405 414.625 511.599 409.565C512.793 404.506 511.282 399.188 507.606 395.513Z" fill="white"/>
<path d="M157.998 414.582L153.992 408.007L146.311 408.631C116.224 411.077 101.93 386.975 98.8908 374.176L97.1118 366.682L89.6238 364.904C75.8688 361.636 65.0278 352.47 59.3598 340.541L4.39382 395.512C0.71782 399.188 -0.79318 404.505 0.40182 409.565C1.59582 414.625 5.32582 418.705 10.2568 420.349L71.3048 440.696L91.6518 501.744C93.2958 506.676 97.3758 510.405 102.436 511.599C107.496 512.793 112.813 511.283 116.489 507.607L188.648 435.456C176.062 433.212 164.742 425.649 157.998 414.582Z" fill="white"/>
<path d="M328.384 398.97L342.011 376.61L368.112 378.73C375.479 379.327 382.209 374.452 383.919 367.245L389.97 341.766L415.441 335.717C422.646 334.005 427.525 327.29 426.925 319.908L424.805 293.814L447.164 280.188C453.488 276.334 456.053 268.442 453.203 261.606L443.127 237.44L460.179 217.572C465.002 211.953 465.003 203.654 460.181 198.034L443.127 178.159L453.203 153.991C456.053 147.156 453.488 139.263 447.164 135.409L424.805 121.783L426.925 95.6893C427.524 88.3073 422.646 81.5922 415.441 79.8802L389.97 73.8313L383.919 48.3522C382.208 41.1452 375.479 36.2702 368.112 36.8672L342.011 38.9873L328.384 16.6273C324.53 10.3013 316.633 7.74025 309.8 10.5892L285.636 20.6712L265.769 3.61725C260.15 -1.20575 251.849 -1.20575 246.23 3.61725L226.364 20.6693L202.2 10.5872C195.363 7.73625 187.471 10.3003 183.616 16.6252L169.989 38.9853L143.888 36.8652C136.506 36.2742 129.792 41.1433 128.081 48.3503L122.03 73.8293L96.559 79.8802C89.354 81.5922 84.475 88.3073 85.075 95.6893L87.195 121.783L64.836 135.409C58.512 139.263 55.947 147.155 58.797 153.991L68.873 178.159L51.819 198.034C46.997 203.654 46.998 211.953 51.821 217.572L68.873 237.44L58.799 261.606C55.949 268.442 58.514 276.334 64.838 280.188L87.197 293.814L85.077 319.908C84.478 327.29 89.356 334.005 96.561 335.717L122.032 341.766L128.083 367.245C129.795 374.452 136.509 379.321 143.89 378.73L169.991 376.61L183.618 398.97C187.472 405.295 195.365 407.859 202.202 405.008L226.366 394.926L246.232 411.977C251.851 416.8 260.152 416.8 265.771 411.977L285.637 394.926L309.801 405.008C316.633 407.857 324.53 405.295 328.384 398.97ZM250.54 314.807C244.684 320.664 235.185 320.666 229.327 314.807L140.96 226.44C135.102 220.583 135.102 211.085 140.96 205.227L186.404 159.782C192.261 153.924 201.759 153.924 207.617 159.782L239.933 192.097L312.415 119.615C318.272 113.757 327.77 113.757 333.628 119.615L379.072 165.059C384.93 170.917 384.93 180.414 379.072 186.272L250.54 314.807Z" fill="white"/>
<path d="M250.54 223.918C244.683 229.776 235.185 229.776 229.327 223.918L197.011 191.603L172.78 215.834L239.934 282.987L347.254 175.667L323.023 151.436L250.54 223.918Z" fill="white"/>
</g>
<defs>
<clipPath id="clip0_3523_156">
<rect width="512" height="512" fill="white"/>
</clipPath>
</defs>
</svg>
