<svg width="512" height="512" viewBox="0 0 512 512" fill="none" xmlns="http://www.w3.org/2000/svg">
<g clip-path="url(#clip0_3523_165)">
<path d="M212.25 260C212.25 271.046 221.204 280 232.25 280H279.75C290.796 280 299.75 271.046 299.75 260V250H212.25V260Z" fill="white"/>
<path d="M416 85C407.716 85 401 91.716 401 100C401 108.284 407.716 115 416 115H446C454.284 115 461 108.284 461 100C461 91.716 454.284 85 446 85H416Z" fill="white"/>
<path d="M393.01 42.5001C397.152 49.6741 406.326 52.1321 413.5 47.9901L439.481 32.9901C446.655 28.8481 449.113 19.6741 444.971 12.5001C440.829 5.32612 431.655 2.86812 424.481 7.01012L398.5 22.0101C391.326 26.1521 388.868 35.3261 393.01 42.5001Z" fill="white"/>
<path d="M398.5 177.99L424.481 192.99C431.655 197.132 440.829 194.674 444.971 187.5C449.113 180.326 446.655 171.152 439.481 167.01L413.5 152.01C406.326 147.868 397.152 150.326 393.01 157.5C388.868 164.674 391.326 173.848 398.5 177.99Z" fill="white"/>
<path d="M66 115H96C104.284 115 111 108.284 111 100C111 91.716 104.284 85 96 85H66C57.716 85 51 91.716 51 100C51 108.284 57.716 115 66 115Z" fill="white"/>
<path d="M72.5187 32.9901L98.4997 47.9901C105.674 52.1321 114.848 49.6741 118.99 42.5001C123.132 35.3261 120.674 26.1521 113.5 22.0101L87.5187 7.01012C80.3447 2.86812 71.1707 5.32612 67.0287 12.5001C62.8867 19.6741 65.3447 28.8481 72.5187 32.9901Z" fill="white"/>
<path d="M98.4997 152.01L72.5187 167.01C65.3447 171.152 62.8867 180.326 67.0287 187.5C71.1707 194.674 80.3447 197.132 87.5187 192.99L113.5 177.99C120.674 173.848 123.132 164.674 118.99 157.5C114.848 150.326 105.674 147.868 98.4997 152.01Z" fill="white"/>
<path d="M192.398 177.084C204.525 187.083 212.25 201.416 212.25 217.134V220H241V126.213L215.394 100.607C209.536 94.749 209.536 85.252 215.394 79.394C221.251 73.536 230.749 73.536 236.607 79.394L256 98.787L275.394 79.394C281.251 73.536 290.749 73.536 296.607 79.394C302.465 85.252 302.465 94.749 296.607 100.607L271 126.213V220H299.75V217.133C299.75 201.415 307.475 187.082 319.602 177.083C341.824 158.762 356 131.055 356 100C356 44.772 311.228 0 256 0C200.772 0 156 44.772 156 100C156 131.055 170.176 158.762 192.398 177.084Z" fill="white"/>
<path d="M417 370C441.853 370 462 349.853 462 325C462 300.147 441.853 280 417 280C392.147 280 372 300.147 372 325C372 349.853 392.147 370 417 370Z" fill="white"/>
<path d="M95 370C119.853 370 140 349.853 140 325C140 300.147 119.853 280 95 280C70.1472 280 50 300.147 50 325C50 349.853 70.1472 370 95 370Z" fill="white"/>
<path d="M457.732 387.926C445.993 395.551 432.01 400 417 400C400.153 400 384.587 394.414 372.052 385H338C334.134 385 331 381.866 331 378V345C331 325.67 315.33 310 296 310H271V379C271 415.451 300.549 445 337 445V497C337 505.284 343.716 512 352 512H497C505.284 512 512 505.284 512 497V460C512 425.774 489.065 396.923 457.732 387.926Z" fill="white"/>
<path d="M181 345V378C181 381.866 177.866 385 174 385H139.948C127.413 394.414 111.848 400 95 400C79.99 400 66.007 395.551 54.268 387.926C22.935 396.923 0 425.774 0 460V497C0 505.284 6.716 512 15 512H160C168.284 512 175 505.284 175 497V445C211.451 445 241 415.451 241 379V310H216C196.67 310 181 325.67 181 345Z" fill="white"/>
</g>
<defs>
<clipPath id="clip0_3523_165">
<rect width="512" height="512" fill="white"/>
</clipPath>
</defs>
</svg>
