<svg width="140" height="184" viewBox="0 0 140 184" fill="none" xmlns="http://www.w3.org/2000/svg">
    <g clip-path="url(#clip0_1031_1405)">
        <path d="M29.908 0L0 29.8773H29.908V0Z" fill="#9388E2" />
        <path
            d="M62.3035 79.0493C55.3093 79.0493 48.3152 81.7096 42.9598 87.0302C32.3077 97.6715 32.3077 115.007 42.9598 125.649C53.612 136.29 70.9657 136.29 81.6179 125.649C92.27 115.007 92.27 97.6715 81.6179 87.0302C76.2918 81.7096 69.2976 79.0493 62.3035 79.0493ZM75.5309 115.446C76.6722 116.586 76.6722 118.428 75.5309 119.568C74.9456 120.153 74.214 120.416 73.4531 120.416C72.6923 120.416 71.9607 120.123 71.3754 119.568L62.2742 110.476L53.173 119.568C52.5878 120.153 51.8562 120.416 51.0953 120.416C50.3344 120.416 49.6028 120.123 49.0175 119.568C47.8762 118.428 47.8762 116.586 49.0175 115.446L58.1187 106.354L49.0175 97.2622C47.8762 96.1221 47.8762 94.2803 49.0175 93.1402C50.1588 92.0001 52.0025 92.0001 53.1438 93.1402L62.245 102.232L71.3461 93.1402C72.4874 92.0001 74.3311 92.0001 75.4724 93.1402C76.6137 94.2803 76.6137 96.1221 75.4724 97.2622L66.3712 106.354L75.5309 115.446Z"
            fill="#9388E2" />
        <path
            d="M32.3656 76.4474C15.8313 92.9648 15.8313 119.743 32.3656 136.261C48.8998 152.778 75.7059 152.778 92.2401 136.261C108.774 119.743 108.774 92.9648 92.2401 76.4474C75.7059 59.9301 48.8998 59.9301 32.3656 76.4474ZM85.7727 129.8C79.3054 136.261 70.7895 139.506 62.3028 139.506C53.8162 139.506 45.3003 136.261 38.8329 129.8C25.8982 116.878 25.8982 95.8297 38.8329 82.9082C51.7677 69.9867 72.838 69.9867 85.7727 82.9082C98.7075 95.8297 98.7075 116.878 85.7727 129.8Z"
            fill="#9388E2" />
        <path
            d="M88.4072 147.75L87.7927 147.165C80.2132 151.93 71.4632 154.503 62.3035 154.503C49.4273 154.503 37.3412 149.504 28.24 140.412C9.45237 121.643 9.45237 91.0937 28.24 72.3254C37.3412 63.2336 49.4273 58.2345 62.3035 58.2345C75.1798 58.2345 87.2659 63.2336 96.3671 72.3254C105.468 81.4172 110.472 93.5202 110.472 106.354C110.472 115.534 107.897 124.275 103.156 131.846L103.742 132.431C107.751 132.431 111.526 134.039 114.365 136.874L118.257 140.763V0H35.7902V35.7534H0.0292969V158.011H92.475C89.8412 155.204 88.4072 151.55 88.4072 147.75ZM101.81 50.926H72.6923C71.0828 50.926 69.7659 49.6104 69.7659 48.0025C69.7659 46.3947 71.0828 45.0791 72.6923 45.0791H101.81C103.42 45.0791 104.737 46.3947 104.737 48.0025C104.737 49.6104 103.42 50.926 101.81 50.926ZM101.81 39.2323H72.6923C71.0828 39.2323 69.7659 37.9167 69.7659 36.3089C69.7659 34.701 71.0828 33.3854 72.6923 33.3854H101.81C103.42 33.3854 104.737 34.701 104.737 36.3089C104.737 37.9167 103.42 39.2323 101.81 39.2323ZM46.3545 9.99809H101.81C103.42 9.99809 104.737 11.3136 104.737 12.9215C104.737 14.5294 103.42 15.8449 101.81 15.8449H46.3545C44.745 15.8449 43.4281 14.5294 43.4281 12.9215C43.4281 11.3136 44.745 9.99809 46.3545 9.99809ZM46.3545 21.6918H101.81C103.42 21.6918 104.737 23.0073 104.737 24.6152C104.737 26.2231 103.42 27.5386 101.81 27.5386H46.3545C44.745 27.5386 43.4281 26.2231 43.4281 24.6152C43.4281 23.0073 44.745 21.6918 46.3545 21.6918Z"
            fill="#9388E2" />
        <path d="M11.6465 163.858V169.646H104.092L98.2978 163.858H11.6465Z" fill="#9388E2" />
        <path d="M129.904 11.6644H124.109V146.609L129.904 152.369V11.6644Z" fill="#9388E2" />
        <path
            d="M137.249 167.98L110.238 140.997C107.868 138.629 104.59 137.839 101.547 138.512L99.7324 136.699C98.6789 137.985 97.5668 139.213 96.3962 140.412C95.1964 141.61 93.9673 142.721 92.6797 143.745L94.4941 145.586C93.821 148.627 94.6404 151.901 96.9815 154.269L123.992 181.252C127.65 184.906 133.591 184.906 137.249 181.252C140.907 177.569 140.907 171.634 137.249 167.98Z"
            fill="#9388E2" />
    </g>
    <defs>
        <clipPath id="clip0_1031_1405">
            <rect width="140" height="184" fill="white" />
        </clipPath>
    </defs>
</svg>